<svg width="52" height="52" viewBox="0 0 52 52" fill="none" xmlns="http://www.w3.org/2000/svg">
<path fill-rule="evenodd" clip-rule="evenodd" d="M22.9975 43.0001C32.3864 44.6583 41.3418 38.3914 43.0001 29.0025C44.6583 19.6136 38.3914 10.6582 29.0025 8.99993C19.6136 7.34168 10.6582 13.6086 8.99993 22.9975C7.34168 32.3864 13.6086 41.3418 22.9975 43.0001ZM49.6303 30.1735C47.3253 43.2242 34.8771 51.9352 21.8265 49.6303C8.77584 47.3253 0.0647728 34.8771 2.36975 21.8265C4.67473 8.77584 17.1229 0.0647727 30.1735 2.36975C43.2242 4.67473 51.9352 17.1229 49.6303 30.1735Z" fill="#FFD19A"/>
<path fill-rule="evenodd" clip-rule="evenodd" d="M33.3728 10.3899C30.2854 8.93188 26.835 8.4221 23.4579 8.92504C20.0809 9.42798 16.9287 10.9211 14.4002 13.2154C11.8717 15.5098 10.0803 18.5025 9.25261 21.815C8.42491 25.1275 8.59807 28.611 9.75018 31.8251C10.9023 35.0392 12.9816 37.8394 15.7252 39.8718C18.4688 41.9041 21.7535 43.0772 25.1638 43.2428C28.5741 43.4083 31.9569 42.5589 34.8845 40.8019C36.4786 39.8451 38.5465 40.3619 39.5033 41.956C40.46 43.5501 39.9433 45.618 38.3492 46.5748C34.2798 49.0171 29.5777 50.1978 24.8373 49.9677C20.0969 49.7375 15.5313 48.1069 11.7176 45.2819C7.90401 42.457 5.01372 38.5646 3.41227 34.097C1.81082 29.6294 1.57013 24.7872 2.72064 20.1828C3.87115 15.5784 6.36118 11.4186 9.87586 8.22939C13.3905 5.04017 17.772 2.96479 22.4662 2.26569C27.1604 1.5666 31.9564 2.27519 36.2479 4.30187C37.9291 5.09581 38.6483 7.10228 37.8544 8.78345C37.0604 10.4646 35.054 11.1838 33.3728 10.3899Z" fill="#FF8C00"/>
<path d="M29.2482 31.5843C30.8258 33.1618 30.8258 35.7196 29.2482 37.2972C27.6706 38.8748 25.1128 38.8748 23.5353 37.2972C21.9577 35.7196 21.9577 33.1618 23.5353 31.5843C25.1128 30.0067 27.6706 30.0067 29.2482 31.5843Z" fill="#FF8C00"/>
<path d="M36.8651 23.9671C38.4427 25.5447 38.4427 28.1025 36.8651 29.6801C35.2875 31.2577 32.7298 31.2577 31.1522 29.6801C29.5746 28.1025 29.5746 25.5447 31.1522 23.9671C32.7298 22.3896 35.2875 22.3896 36.8651 23.9671Z" fill="#FF8C00"/>
<path d="M21.6298 23.9671C23.2074 25.5447 23.2074 28.1025 21.6298 29.6801C20.0522 31.2577 17.4944 31.2577 15.9168 29.6801C14.3392 28.1025 14.3392 25.5447 15.9168 23.9671C17.4944 22.3895 20.0522 22.3895 21.6298 23.9671Z" fill="#FF8C00"/>
<path d="M29.2482 16.3495C30.8258 17.9271 30.8258 20.4849 29.2482 22.0625C27.6706 23.6401 25.1128 23.6401 23.5353 22.0625C21.9577 20.4849 21.9577 17.9271 23.5353 16.3495C25.1128 14.7719 27.6706 14.7719 29.2482 16.3495Z" fill="#FF8C00"/>
</svg>
