<?xml version="1.0" encoding="UTF-8"?>
<svg width="50px" height="48px" viewBox="0 0 50 48" version="1.1" xmlns="http://www.w3.org/2000/svg" xmlns:xlink="http://www.w3.org/1999/xlink">
    <title>Star</title>
    <g id="Symbols" stroke="none" stroke-width="1" fill="none" fill-rule="evenodd">
        <g id="Testimonials/Testimonials-Grid" transform="translate(-894.000000, -557.000000)" fill="#2ADEA1">
            <path d="M917.302034,599.766159 L908.284981,604.506704 C906.329602,605.534708 903.911094,604.782922 902.883091,602.827543 C902.473734,602.048901 902.332476,601.157029 902.481183,600.289999 L904.203287,590.249362 C904.425839,588.951786 903.995645,587.627785 903.0529,586.708836 L895.757951,579.598018 C894.176017,578.056013 894.143647,575.52356 895.685652,573.941626 C896.299687,573.311691 897.104256,572.901743 897.974804,572.775245 L908.056177,571.310335 C909.359017,571.121022 910.48528,570.302744 911.067928,569.12217 L915.576454,559.986897 C916.554144,558.005883 918.952647,557.192527 920.933662,558.170216 C921.722512,558.559537 922.361022,559.198047 922.750343,559.986897 L927.25887,569.12217 C927.841518,570.302744 928.96778,571.121022 930.270621,571.310335 L940.351993,572.775245 C942.538172,573.092915 944.052898,575.122686 943.735228,577.308866 C943.60873,578.179414 943.198781,578.983984 942.568846,579.598018 L935.273897,586.708836 C934.331153,587.627785 933.900959,588.951786 934.12351,590.249362 L935.845614,600.289999 C936.219058,602.467344 934.756707,604.535168 932.579361,604.908612 C931.712331,605.057319 930.820459,604.916061 930.041817,604.506704 L921.024763,599.766159 C919.859467,599.153527 918.46733,599.153527 917.302034,599.766159 Z" id="Star"></path>
        </g>
    </g>
</svg>