<?xml version="1.0" encoding="utf-8"?>
<!-- Generator: Adobe Illustrator 26.0.2, SVG Export Plug-In . SVG Version: 6.00 Build 0)  -->
<svg version="1.1" id="Layer_1" xmlns="http://www.w3.org/2000/svg" xmlns:xlink="http://www.w3.org/1999/xlink" x="0px" y="0px"
	 viewBox="0 0 189.7 157.7" style="enable-background:new 0 0 189.7 157.7;" xml:space="preserve">
<style type="text/css">
	.st0{fill:none;}
	.st1{fill:#148AFF;}
	.st2{fill-rule:evenodd;clip-rule:evenodd;fill:#00DE85;}
	.st3{fill-rule:evenodd;clip-rule:evenodd;fill:#00AB67;}
</style>
<g id="Layer_x0020_1">
	<rect x="-337" y="-65" class="st0" width="1250" height="408.9"/>
	<g id="_3075861377344">
		<path class="st1" d="M75.4,18.9c0.1-0.3,0.3-0.7,0.6-1.1c0.3-0.4,0.7-0.8,1.1-1.1c0.5-0.3,0.9-0.6,1.4-0.8c0.5-0.2,1-0.3,1.5-0.3
			h21.8c1,0,1.8,0.3,2.5,0.9c0.7,0.6,1.3,1.1,1.5,1.6l2.1,4.8l11,28.4L96.5,72.2l-5.7-16.9c-1.1,2.9-2.1,6-3.2,9.4
			c-1.1,3.3-2.2,6.7-3.3,10.1s-2.1,6.7-3.3,10.1l-0.6,1.8l0,0l-0.4,1L65,101.7L51.8,79.9L75.4,18.9L75.4,18.9z M134.8,92.4
			l17.7,45.6c0.4,1.1,0.4,2.1-0.3,2.8s-1.7,1.1-3.2,1.1h-24.4c-1.3,0-2.3-0.3-3-0.7c-0.7-0.5-1.2-1.3-1.7-2.4
			c-1.1-2.9-2.2-5.8-3.3-8.6l-0.9-2.5l0,0l-6.7-19.2L134.8,92.4L134.8,92.4z M63,135.2l-1.3,3.5c-0.8,2.1-2.2,3.1-4.3,3.1H32.3
			c-1.1,0-2-0.3-2.7-0.9c-0.7-0.6-0.8-1.4-0.4-2.6l7.5-19.4l9.8-6.8l12.7,20.5C60.1,134.1,61.5,135,63,135.2L63,135.2z"/>
		<polygon class="st2" points="11.8,129.8 46.1,81 63.8,110.3 135.2,43.3 129.7,35.3 177.5,35.6 159.3,79.6 155.6,73.3 63.8,129.8 
			48.2,104.5 		"/>
		<polygon class="st3" points="11.8,129.8 46.1,94.6 63.8,117.3 177.5,35.6 159.3,79.6 155.6,73.3 63.8,129.8 48.2,104.5 		"/>
	</g>
</g>
</svg>
