<?xml version="1.0" encoding="utf-8"?>
<!-- Generator: Adobe Illustrator 25.4.1, SVG Export Plug-In . SVG Version: 6.00 Build 0)  -->
<svg version="1.1" id="Layer_1" xmlns="http://www.w3.org/2000/svg" xmlns:xlink="http://www.w3.org/1999/xlink" x="0px" y="0px"
	 viewBox="0 0 144.6 140.8" style="enable-background:new 0 0 144.6 140.8;" xml:space="preserve">
<style type="text/css">
	.st0{fill-rule:evenodd;clip-rule:evenodd;fill:#E81E25;}
	.st1{fill-rule:evenodd;clip-rule:evenodd;fill:#FFFFFF;}
</style>
<g>
	<path class="st0" d="M72.5,34.6c1.7,0.1,3.6-1,3.7-3.3c1.3-1.1,3-1.1,4.4-0.8c7.6,3.7,19.2,3.2,28.8,3.2c-1.2,1.9-1.5,4.9-7.3,4.1
		c-0.6,0.9,1.1,3.6-5.9,3.3c-0.3,3.7-5.6,5.6-9.3,2.4c-1.5,4.4-9.9,4.8-14.4,3V34.6z"/>
	<path class="st0" d="M66.9,34.6c-1.7,0.1-3.6-1-3.7-3.3c-1.3-1.1-3-1.1-4.4-0.8c-7.6,3.7-19.2,3.2-28.8,3.2
		c1.2,1.9,1.5,4.9,7.3,4.1c0.6,0.9-1.1,3.6,5.9,3.3c0.3,3.7,5.6,5.6,9.3,2.4c1.5,4.4,9.9,4.8,14.4,3V34.6z"/>
	<path class="st0" d="M71.4,59.4c0,0,0.3-28.3,0.3-28.3c1.7-0.7,2.9-2.4,2.9-4.4c0-2.7-2.2-4.8-4.8-4.8c-2.7,0-4.8,2.2-4.8,4.8
		c0,2,1.3,3.8,3,4.5c0,0,0,27.7,0,28.3C68,59.4,71.4,59.4,71.4,59.4z"/>
	<path class="st0" d="M50,55.7c0.6-6.9,8.1-6.4,11.9-6.4c4.4,1.5,5,5.2,3.7,6.3c-1.1,0.9-3.2,1-5.4,0.3l-2.4-1.7
		c-1.9-0.4-3.2,0.1-2.3,2.5c2.5,2.4,5.9,2.6,9,3.4c-2.7,0.9-5.4,1.9-6.7,4.2C54.5,63,50.1,60.5,50,55.7z"/>
	<path class="st0" d="M81.5,64.4c3.3-1.4,7.7-3.9,7.9-8.7c-0.6-6.9-8.1-6.4-11.9-6.4c-4.4,1.5-5,5.2-3.7,6.3c1.1,0.9,3.2,1,5.4,0.3
		l2.4-1.7c1.9-0.4,3.2,0.1,2.3,2.5c-2.4,2.4-5.9,2.6-9,3.3c0,0-2.7,0.5-5.1,0.6c-1.2,0-5.6,0.4-8.5,2.5c-2.6,1.9-4.5,5.4-4.4,6.4
		c0,0.1-0.6,2.1,0.6,4.3c0.9,1.8,2.4,3.2,3.8,3.9C61.3,78,62,77,64,75.9c1-0.6,2.4-1,3.1-1.4c0.1,0-1.3-0.6-2.2-1.5
		c-0.8-0.9-1.2-2-1-2.9c0.3-1.5,2.3-3.1,4.7-3.1c0.1,0,3.2-0.2,6.4-0.8C78.2,65.6,81.5,64.4,81.5,64.4z"/>
	<path class="st0" d="M73.9,67.8c2.5,0.1,5.1-0.7,7.4-1.6c3.7,6,0.3,8.7-2.2,10.8c-3.3,2.1-7.3,3.1-10.1,4.2c-4.1,1.1-5,4.4-1.2,6.4
		c-2.5,0.7-4,1.7-5.4,2.9c-1-0.9-6.6-4-2.1-9.7c3.8-4.6,9.3-4.4,13.4-7C74.3,73.1,77.5,70.9,73.9,67.8z"/>
	<path class="st0" d="M71.7,81.7c1.5-0.5,4.2-1.2,5.9-2.3c5.5,4.7,1.7,10.2-0.9,11.4c-2.9,1.4-6.2,2.1-8.5,3.3
		c-1.7,0.5-2.2,1.8-1,3.6c-2,0.6-2.7,1.5-3.8,2.4c-1.2-0.7-3.3-2.1-1.5-6.7c2.4-4.4,6.9-4,10.4-6.1C73.8,86.9,76.3,85,71.7,81.7z"/>
	<path class="st0" d="M71.6,94.3c1-0.4,3.6-1.1,4.9-1.9c2.3,4.6-0.3,7.7-1.7,8.7c-2.1,1.4-4.8,1.6-6.5,2.1c-1.5,0.2-0.9,3-1,4.3
		c-0.9,0.5-0.3,0.1-1.2,0.7c-0.4-0.8-3.6-2.1-2.8-5.6c1.8-3.3,4.5-3.3,7.1-4.9C71.5,97.3,73.7,96.2,71.6,94.3z"/>
	<path class="st0" d="M71.4,104c1.7-0.5,3.6-1.1,5-2.3c1.3,3-0.8,5.3-3,6.6c-3.9,1.7-7.8,3.4-11.6,4.7c0.9-1.9,6.4-4.3,9.4-6.7
		C71.5,106,72.2,105.3,71.4,104z"/>
	<path class="st0" d="M68,111.8l3.4-1.3c-0.5,3.3-0.2,7.9-1.4,9.9l-0.3,0C68.6,118.8,68.3,115,68,111.8z"/>
	<path class="st0" d="M71.4,110.5c0.9-0.4,1.8-0.7,2.6-1.3c1.4,1.1,2.9,2,4.1,3.3l0,0C75.9,112.7,73.5,111.7,71.4,110.5z"/>
	<polygon class="st0" points="68,104.7 71.4,104 71.4,105 68,106.9 	"/>
	<polygon class="st0" points="68.1,95.5 71.4,94.3 71.4,95.6 68.1,97.4 	"/>
	<polygon class="st0" points="68.1,83 71.5,81.8 71.5,86.5 68,87.6 	"/>
	<polygon class="st0" points="68,68.4 71.5,68 71.5,73.4 68,74.5 	"/>
	<g>
		<path class="st1" d="M77.5,50.6c0.7-0.3,1.4-0.3,1.4-0.2c0.1,0.2-0.4,0.5-1.1,0.8c-0.7,0.3-1.4,0.3-1.4,0.2
			C76.3,51.2,76.8,50.9,77.5,50.6z"/>
		<path class="st1" d="M61.5,51.2c0.7,0.3,1.4,0.3,1.4,0.2c0.1-0.2-0.4-0.5-1.1-0.8c-0.7-0.3-1.4-0.3-1.4-0.2
			C60.3,50.6,60.8,50.9,61.5,51.2z"/>
	</g>
</g>
</svg>
