<svg width="791" height="886" viewBox="0 0 791 886" fill="none" xmlns="http://www.w3.org/2000/svg">
<g opacity="0.54">
<g opacity="0.5" filter="url(#filter0_f_936_49243)">
<ellipse cx="120" cy="84.5" rx="120" ry="84.5" transform="matrix(-1 0 0 1 440 262)" fill="#FF6861"/>
</g>
<g opacity="0.4" filter="url(#filter1_f_936_49243)">
<ellipse cx="93.7506" cy="68.8252" rx="93.7506" ry="68.8252" transform="matrix(-1 0 0 1 518.369 206)" fill="#8D78FF"/>
</g>
<g opacity="0.5" filter="url(#filter2_f_936_49243)">
<ellipse cx="188" cy="155.5" rx="188" ry="155.5" transform="matrix(-1 0 0 1 591 375)" fill="#FF6861"/>
</g>
</g>
<rect x="262.84" y="320.754" width="130.637" height="440.246" fill="url(#paint0_linear_936_49243)"/>
<rect x="423.523" y="118.267" width="130.637" height="641.427" fill="url(#paint1_linear_936_49243)"/>
<rect x="584.207" y="456.616" width="130.637" height="304.384" fill="url(#paint2_linear_936_49243)"/>
<g filter="url(#filter3_d_936_49243)">
<rect x="262.84" y="260.661" width="130.637" height="130.637" rx="65.3184" fill="white"/>
</g>
<path fill-rule="evenodd" clip-rule="evenodd" d="M320.945 358.799L306.354 326.335C306.323 326.266 306.256 326.222 306.181 326.222H292.177C292.072 326.222 291.986 326.308 291.986 326.413C291.986 326.439 291.992 326.466 292.003 326.49L306.37 358.799H320.945Z" fill="url(#paint3_linear_936_49243)"/>
<path fill-rule="evenodd" clip-rule="evenodd" d="M350.229 344.173L335.587 311.596L320.979 311.596L335.654 344.173H350.229Z" fill="url(#paint4_linear_936_49243)"/>
<path fill-rule="evenodd" clip-rule="evenodd" d="M306.304 358.799L320.945 311.596H335.654L320.879 358.799H306.304Z" fill="url(#paint5_linear_936_49243)"/>
<path fill-rule="evenodd" clip-rule="evenodd" d="M335.587 344.173L350.188 297.104C350.212 297.024 350.286 296.97 350.369 296.97H364.679C364.784 296.97 364.869 297.055 364.869 297.16C364.869 297.179 364.866 297.199 364.86 297.217L350.163 344.173H335.587Z" fill="url(#paint6_linear_936_49243)"/>
<path d="M350.367 343.615L341.875 324.673L335.997 343.615H350.367Z" fill="url(#paint7_linear_936_49243)"/>
<g filter="url(#filter4_d_936_49243)">
<rect x="423.523" y="54.2546" width="130.637" height="130.637" rx="65.3184" fill="white"/>
</g>
<path fill-rule="evenodd" clip-rule="evenodd" d="M455.742 120.176C455.742 101.474 470.903 86.3127 489.606 86.3127C508.308 86.3127 523.469 101.474 523.469 120.176C523.469 138.878 508.308 154.039 489.606 154.039C470.903 154.039 455.742 138.878 455.742 120.176ZM514.73 120.176C514.73 106.3 503.481 95.0517 489.606 95.0517C475.73 95.0517 464.481 106.3 464.481 120.176C464.481 134.052 475.73 145.3 489.606 145.3C503.481 145.3 514.73 134.052 514.73 120.176Z" fill="#C2B8FC"/>
<mask id="mask0_936_49243" style="mask-type:luminance" maskUnits="userSpaceOnUse" x="453" y="95" width="76" height="65">
<path fill-rule="evenodd" clip-rule="evenodd" d="M453.649 132.729L480.377 113.361L489.665 123.045L518.219 95.064L528.415 120.174L520.263 152.926L482.543 159.937L457.974 145.284L453.649 132.729Z" fill="white"/>
</mask>
<g mask="url(#mask0_936_49243)">
<path fill-rule="evenodd" clip-rule="evenodd" d="M455.789 120.174C455.789 101.483 470.956 86.3301 489.665 86.3301C508.375 86.3301 523.542 101.483 523.542 120.174C523.542 138.866 508.375 154.018 489.665 154.018C470.956 154.018 455.789 138.866 455.789 120.174ZM514.799 120.174C514.799 106.306 503.546 95.064 489.665 95.064C475.784 95.064 464.531 106.306 464.531 120.174C464.531 134.042 475.784 145.284 489.665 145.284C503.546 145.284 514.799 134.042 514.799 120.174Z" fill="#8672FA"/>
</g>
<path fill-rule="evenodd" clip-rule="evenodd" d="M458.215 129.672L480.096 113.706C480.375 113.502 480.739 113.457 481.06 113.586L491.881 117.948C492.232 118.089 492.633 118.02 492.917 117.769L514.077 99.0591L519.474 106.525L492.946 129.25C492.647 129.506 492.225 129.563 491.868 129.394L481.076 124.29C480.748 124.135 480.362 124.17 480.067 124.381L462.028 137.298L458.215 129.672Z" fill="#8672FA"/>
<rect x="102.157" y="67.3184" width="130.637" height="693.682" fill="url(#paint8_linear_936_49243)"/>
<g filter="url(#filter5_d_936_49243)">
<rect x="584.207" y="393.91" width="130.637" height="130.637" rx="65.3184" fill="white"/>
</g>
<path fill-rule="evenodd" clip-rule="evenodd" d="M641.908 476H630.183V457.575H618.458V445.85H641.908V476ZM677.921 445.85L665.358 476H651.958L664.521 445.85H677.921ZM651.958 459.25C655.659 459.25 658.658 456.251 658.658 452.55C658.658 448.85 655.659 445.85 651.958 445.85C648.258 445.85 645.258 448.85 645.258 452.55C645.258 456.251 648.258 459.25 651.958 459.25Z" fill="#131722"/>
<g filter="url(#filter6_d_936_49243)">
<rect x="102.157" y="2" width="130.637" height="130.637" rx="65.3184" fill="white"/>
</g>
<path fill-rule="evenodd" clip-rule="evenodd" d="M182.002 59.4511V59.1798L171.56 37.272H157.815L168.436 59.5539L170.699 64.185L182.002 59.4511Z" fill="url(#paint9_linear_936_49243)"/>
<path fill-rule="evenodd" clip-rule="evenodd" d="M133.531 81.3691L157.816 37.272H171.56L147.17 81.4482C147.108 81.5605 146.99 81.6302 146.862 81.6302H133.685C133.588 81.6302 133.509 81.5514 133.509 81.4541C133.509 81.4244 133.517 81.3952 133.531 81.3691Z" fill="url(#paint10_linear_936_49243)"/>
<path fill-rule="evenodd" clip-rule="evenodd" d="M157.849 37.2725L164.217 50.6329L171.593 37.2725L171.593 37.272H157.849L157.849 37.2725Z" fill="url(#paint11_linear_936_49243)"/>
<path fill-rule="evenodd" clip-rule="evenodd" d="M201.424 78.3486L187.799 49.7651H174.054L187.703 78.3998C187.762 78.5224 187.886 78.6005 188.021 78.6005H201.265C201.362 78.6005 201.441 78.5217 201.441 78.4244C201.441 78.3982 201.435 78.3723 201.424 78.3486Z" fill="url(#paint12_linear_936_49243)"/>
<path fill-rule="evenodd" clip-rule="evenodd" d="M149.77 93.8623L174.055 49.7651H187.8L163.409 93.9414C163.347 94.0537 163.229 94.1234 163.101 94.1234H149.925C149.827 94.1234 149.749 94.0445 149.749 93.9473C149.749 93.9176 149.756 93.8883 149.77 93.8623Z" fill="url(#paint13_linear_936_49243)"/>
<path fill-rule="evenodd" clip-rule="evenodd" d="M187.793 49.7655L180.417 63.1259L174.048 49.7655L174.048 49.7654H187.793L187.793 49.7655Z" fill="url(#paint14_linear_936_49243)"/>
<defs>
<filter id="filter0_f_936_49243" x="-0.000488281" y="62" width="640" height="569" filterUnits="userSpaceOnUse" color-interpolation-filters="sRGB">
<feFlood flood-opacity="0" result="BackgroundImageFix"/>
<feBlend mode="normal" in="SourceGraphic" in2="BackgroundImageFix" result="shape"/>
<feGaussianBlur stdDeviation="100" result="effect1_foregroundBlur_936_49243"/>
</filter>
<filter id="filter1_f_936_49243" x="130.867" y="6" width="587.501" height="537.65" filterUnits="userSpaceOnUse" color-interpolation-filters="sRGB">
<feFlood flood-opacity="0" result="BackgroundImageFix"/>
<feBlend mode="normal" in="SourceGraphic" in2="BackgroundImageFix" result="shape"/>
<feGaussianBlur stdDeviation="100" result="effect1_foregroundBlur_936_49243"/>
</filter>
<filter id="filter2_f_936_49243" x="14.9995" y="175" width="776" height="711" filterUnits="userSpaceOnUse" color-interpolation-filters="sRGB">
<feFlood flood-opacity="0" result="BackgroundImageFix"/>
<feBlend mode="normal" in="SourceGraphic" in2="BackgroundImageFix" result="shape"/>
<feGaussianBlur stdDeviation="100" result="effect1_foregroundBlur_936_49243"/>
</filter>
<filter id="filter3_d_936_49243" x="254.84" y="258.661" width="146.637" height="146.637" filterUnits="userSpaceOnUse" color-interpolation-filters="sRGB">
<feFlood flood-opacity="0" result="BackgroundImageFix"/>
<feColorMatrix in="SourceAlpha" type="matrix" values="0 0 0 0 0 0 0 0 0 0 0 0 0 0 0 0 0 0 127 0" result="hardAlpha"/>
<feOffset dy="6"/>
<feGaussianBlur stdDeviation="4"/>
<feColorMatrix type="matrix" values="0 0 0 0 0.45098 0 0 0 0 0.505882 0 0 0 0 0.72549 0 0 0 0.198576 0"/>
<feBlend mode="normal" in2="BackgroundImageFix" result="effect1_dropShadow_936_49243"/>
<feBlend mode="normal" in="SourceGraphic" in2="effect1_dropShadow_936_49243" result="shape"/>
</filter>
<filter id="filter4_d_936_49243" x="415.523" y="52.2546" width="146.637" height="146.637" filterUnits="userSpaceOnUse" color-interpolation-filters="sRGB">
<feFlood flood-opacity="0" result="BackgroundImageFix"/>
<feColorMatrix in="SourceAlpha" type="matrix" values="0 0 0 0 0 0 0 0 0 0 0 0 0 0 0 0 0 0 127 0" result="hardAlpha"/>
<feOffset dy="6"/>
<feGaussianBlur stdDeviation="4"/>
<feColorMatrix type="matrix" values="0 0 0 0 0.45098 0 0 0 0 0.505882 0 0 0 0 0.72549 0 0 0 0.198576 0"/>
<feBlend mode="normal" in2="BackgroundImageFix" result="effect1_dropShadow_936_49243"/>
<feBlend mode="normal" in="SourceGraphic" in2="effect1_dropShadow_936_49243" result="shape"/>
</filter>
<filter id="filter5_d_936_49243" x="576.207" y="391.91" width="146.637" height="146.637" filterUnits="userSpaceOnUse" color-interpolation-filters="sRGB">
<feFlood flood-opacity="0" result="BackgroundImageFix"/>
<feColorMatrix in="SourceAlpha" type="matrix" values="0 0 0 0 0 0 0 0 0 0 0 0 0 0 0 0 0 0 127 0" result="hardAlpha"/>
<feOffset dy="6"/>
<feGaussianBlur stdDeviation="4"/>
<feColorMatrix type="matrix" values="0 0 0 0 0.45098 0 0 0 0 0.505882 0 0 0 0 0.72549 0 0 0 0.198576 0"/>
<feBlend mode="normal" in2="BackgroundImageFix" result="effect1_dropShadow_936_49243"/>
<feBlend mode="normal" in="SourceGraphic" in2="effect1_dropShadow_936_49243" result="shape"/>
</filter>
<filter id="filter6_d_936_49243" x="94.1567" y="0" width="146.637" height="146.637" filterUnits="userSpaceOnUse" color-interpolation-filters="sRGB">
<feFlood flood-opacity="0" result="BackgroundImageFix"/>
<feColorMatrix in="SourceAlpha" type="matrix" values="0 0 0 0 0 0 0 0 0 0 0 0 0 0 0 0 0 0 127 0" result="hardAlpha"/>
<feOffset dy="6"/>
<feGaussianBlur stdDeviation="4"/>
<feColorMatrix type="matrix" values="0 0 0 0 0.45098 0 0 0 0 0.505882 0 0 0 0 0.72549 0 0 0 0.198576 0"/>
<feBlend mode="normal" in2="BackgroundImageFix" result="effect1_dropShadow_936_49243"/>
<feBlend mode="normal" in="SourceGraphic" in2="effect1_dropShadow_936_49243" result="shape"/>
</filter>
<linearGradient id="paint0_linear_936_49243" x1="317.707" y1="716.598" x2="214.139" y2="333.952" gradientUnits="userSpaceOnUse">
<stop stop-color="#FCF6F4" stop-opacity="0"/>
<stop offset="0.463542" stop-color="#FE9D9D" stop-opacity="0.3"/>
<stop offset="1" stop-color="#C2B8FC"/>
</linearGradient>
<linearGradient id="paint1_linear_936_49243" x1="478.391" y1="695" x2="274.188" y2="177.182" gradientUnits="userSpaceOnUse">
<stop stop-color="#FCF6F4" stop-opacity="0"/>
<stop offset="0.463542" stop-color="#FE9D9D" stop-opacity="0.3"/>
<stop offset="1" stop-color="#C2B8FC"/>
</linearGradient>
<linearGradient id="paint2_linear_936_49243" x1="639.074" y1="730.3" x2="587.736" y2="455.967" gradientUnits="userSpaceOnUse">
<stop stop-color="#FCF6F4" stop-opacity="0"/>
<stop offset="0.463542" stop-color="#FE9D9D" stop-opacity="0.3"/>
<stop offset="1" stop-color="#C2B8FC"/>
</linearGradient>
<linearGradient id="paint3_linear_936_49243" x1="321.016" y1="329.081" x2="302.89" y2="339.654" gradientUnits="userSpaceOnUse">
<stop stop-color="#FEBFBD"/>
<stop offset="1" stop-color="#FC6A65"/>
</linearGradient>
<linearGradient id="paint4_linear_936_49243" x1="350.3" y1="314.455" x2="332.085" y2="325.186" gradientUnits="userSpaceOnUse">
<stop stop-color="#FEBFBD"/>
<stop offset="1" stop-color="#FC6A65"/>
</linearGradient>
<linearGradient id="paint5_linear_936_49243" x1="331.522" y1="324.022" x2="309.535" y2="326.265" gradientUnits="userSpaceOnUse">
<stop stop-color="#8D78FF"/>
<stop offset="1" stop-color="#436AF5"/>
</linearGradient>
<linearGradient id="paint6_linear_936_49243" x1="360.747" y1="309.395" x2="338.81" y2="311.629" gradientUnits="userSpaceOnUse">
<stop stop-color="#8D78FF"/>
<stop offset="1" stop-color="#436AF5"/>
</linearGradient>
<linearGradient id="paint7_linear_936_49243" x1="356.269" y1="322.409" x2="328.002" y2="338.328" gradientUnits="userSpaceOnUse">
<stop stop-color="#7160CC"/>
<stop offset="1" stop-color="#436AF5"/>
</linearGradient>
<linearGradient id="paint8_linear_936_49243" x1="157.024" y1="691.036" x2="-76.476" y2="143.528" gradientUnits="userSpaceOnUse">
<stop stop-color="#FCF6F4" stop-opacity="0"/>
<stop offset="0.463542" stop-color="#FE9D9D" stop-opacity="0.3"/>
<stop offset="1" stop-color="#C2B8FC"/>
</linearGradient>
<linearGradient id="paint9_linear_936_49243" x1="182.061" y1="39.6335" x2="167.006" y2="48.5117" gradientUnits="userSpaceOnUse">
<stop stop-color="#FEBFBD"/>
<stop offset="1" stop-color="#FC6A65"/>
</linearGradient>
<linearGradient id="paint10_linear_936_49243" x1="166.204" y1="48.9486" x2="137.961" y2="52.9243" gradientUnits="userSpaceOnUse">
<stop stop-color="#8D78FF"/>
<stop offset="1" stop-color="#436AF5"/>
</linearGradient>
<linearGradient id="paint11_linear_936_49243" x1="177.239" y1="35.6749" x2="154.746" y2="52.8531" gradientUnits="userSpaceOnUse">
<stop stop-color="#7160CC"/>
<stop offset="1" stop-color="#436AF5"/>
</linearGradient>
<linearGradient id="paint12_linear_936_49243" x1="201.508" y1="52.2953" x2="184.96" y2="62.6079" gradientUnits="userSpaceOnUse">
<stop stop-color="#FEBFBD"/>
<stop offset="1" stop-color="#FC6A65"/>
</linearGradient>
<linearGradient id="paint13_linear_936_49243" x1="182.443" y1="61.4418" x2="154.2" y2="65.4175" gradientUnits="userSpaceOnUse">
<stop stop-color="#8D78FF"/>
<stop offset="1" stop-color="#436AF5"/>
</linearGradient>
<linearGradient id="paint14_linear_936_49243" x1="193.439" y1="48.1684" x2="170.946" y2="65.3466" gradientUnits="userSpaceOnUse">
<stop stop-color="#7160CC"/>
<stop offset="1" stop-color="#436AF5"/>
</linearGradient>
</defs>
</svg>
