<svg width="39" height="39" viewBox="0 0 39 39" fill="none" xmlns="http://www.w3.org/2000/svg">
<path d="M11.375 27.6252V27.6415M11.375 11.3752V11.3915M27.625 11.3752V11.3915M27.625 22.7502H22.75V27.6252M32.5 22.7502V22.7665M22.75 32.5002H27.625M27.625 27.6252H32.5V32.5002M6.5 8.12524C6.5 7.69427 6.67121 7.28094 6.97595 6.9762C7.2807 6.67145 7.69402 6.50024 8.125 6.50024H14.625C15.056 6.50024 15.4693 6.67145 15.774 6.9762C16.0788 7.28094 16.25 7.69427 16.25 8.12524V14.6252C16.25 15.0562 16.0788 15.4695 15.774 15.7743C15.4693 16.079 15.056 16.2502 14.625 16.2502H8.125C7.69402 16.2502 7.2807 16.079 6.97595 15.7743C6.67121 15.4695 6.5 15.0562 6.5 14.6252V8.12524ZM22.75 8.12524C22.75 7.69427 22.9212 7.28094 23.2259 6.9762C23.5307 6.67145 23.944 6.50024 24.375 6.50024H30.875C31.306 6.50024 31.7193 6.67145 32.024 6.9762C32.3288 7.28094 32.5 7.69427 32.5 8.12524V14.6252C32.5 15.0562 32.3288 15.4695 32.024 15.7743C31.7193 16.079 31.306 16.2502 30.875 16.2502H24.375C23.944 16.2502 23.5307 16.079 23.2259 15.7743C22.9212 15.4695 22.75 15.0562 22.75 14.6252V8.12524ZM6.5 24.3752C6.5 23.9443 6.67121 23.5309 6.97595 23.2262C7.2807 22.9214 7.69402 22.7502 8.125 22.7502H14.625C15.056 22.7502 15.4693 22.9214 15.774 23.2262C16.0788 23.5309 16.25 23.9443 16.25 24.3752V30.8752C16.25 31.3062 16.0788 31.7195 15.774 32.0243C15.4693 32.329 15.056 32.5002 14.625 32.5002H8.125C7.69402 32.5002 7.2807 32.329 6.97595 32.0243C6.67121 31.7195 6.5 31.3062 6.5 30.8752V24.3752Z" stroke="#879EF5" stroke-width="2.10485" stroke-linecap="round" stroke-linejoin="round"/>
<path d="M9.17969 9.7498C9.17969 9.43305 9.43647 9.17627 9.75322 9.17627H12.9076C13.2244 9.17627 13.4812 9.43305 13.4812 9.7498V12.9613C13.4812 13.278 13.2244 13.5348 12.9076 13.5348H9.75322C9.43647 13.5348 9.17969 13.278 9.17969 12.9613V9.7498Z" fill="#879EF5"/>
<path d="M9.17969 26.0955C9.17969 25.7788 9.43647 25.522 9.75322 25.522H12.9076C13.2244 25.522 13.4812 25.7788 13.4812 26.0955V29.2499C13.4812 29.5667 13.2244 29.8234 12.9076 29.8234H9.75322C9.43647 29.8234 9.17969 29.5667 9.17969 29.2499V26.0955Z" fill="#879EF5"/>
<path d="M25.5156 9.7498C25.5156 9.43305 25.7724 9.17627 26.0892 9.17627H29.2436C29.5603 9.17627 29.8171 9.43305 29.8171 9.7498V12.9042C29.8171 13.221 29.5603 13.4777 29.2436 13.4777H26.0892C25.7724 13.4777 25.5156 13.221 25.5156 12.9042V9.7498Z" fill="#879EF5"/>
<g clip-path="url(#clip0_917_53158)">
<path d="M11.3399 19.5254C11.3395 20.9652 11.7157 22.371 12.4311 23.6102L11.2715 27.844L15.6043 26.7079C16.8026 27.3603 18.1453 27.7022 19.5098 27.7023H19.5134C24.0177 27.7023 27.6843 24.037 27.6863 19.5318C27.6871 17.3488 26.8377 15.296 25.2945 13.7515C23.7516 12.2073 21.6995 11.3563 19.5131 11.3553C15.0082 11.3553 11.3418 15.0205 11.34 19.5254" fill="url(#paint0_linear_917_53158)"/>
<path d="M11.0672 19.5222C11.0667 21.0138 11.4564 22.4699 12.1972 23.7534L10.9961 28.139L15.4842 26.9622C16.7208 27.6365 18.1132 27.992 19.5299 27.9925H19.5336C24.1995 27.9925 27.9978 24.1953 27.9998 19.5289C28.0006 17.2674 27.1207 15.1408 25.5223 13.5411C23.9238 11.9415 21.7983 11.06 19.5336 11.0591C14.8668 11.0591 11.069 14.8557 11.0672 19.5222ZM13.7399 23.5324L13.5724 23.2664C12.8679 22.1463 12.4961 20.8518 12.4966 19.5227C12.4981 15.644 15.6547 12.4885 19.5362 12.4885C21.4159 12.4893 23.1825 13.222 24.5111 14.5515C25.8398 15.8811 26.5709 17.6486 26.5704 19.5284C26.5687 23.4071 23.412 26.563 19.5336 26.563H19.5308C18.2679 26.5624 17.0294 26.2232 15.9492 25.5823L15.6922 25.4299L13.0288 26.1282L13.7399 23.5323V23.5324Z" fill="url(#paint1_linear_917_53158)"/>
<path d="M17.4125 15.9842C17.254 15.632 17.0872 15.6249 16.9365 15.6187C16.8131 15.6134 16.672 15.6138 16.5311 15.6138C16.39 15.6138 16.1608 15.6668 15.967 15.8784C15.7731 16.0901 15.2266 16.6019 15.2266 17.6426C15.2266 18.6834 15.9846 19.6892 16.0903 19.8305C16.1961 19.9715 17.5538 22.1756 19.7039 23.0236C21.4909 23.7282 21.8546 23.5881 22.2424 23.5527C22.6303 23.5175 23.494 23.0412 23.6702 22.5472C23.8466 22.0533 23.8466 21.6299 23.7937 21.5414C23.7409 21.4533 23.5998 21.4004 23.3882 21.2946C23.1766 21.1888 22.1366 20.677 21.9427 20.6064C21.7488 20.5359 21.6077 20.5007 21.4667 20.7125C21.3256 20.924 20.9205 21.4004 20.797 21.5414C20.6737 21.6828 20.5502 21.7005 20.3387 21.5946C20.127 21.4885 19.4457 21.2654 18.6375 20.5448C18.0086 19.9841 17.584 19.2916 17.4606 19.0798C17.3372 18.8683 17.4474 18.7537 17.5535 18.6483C17.6485 18.5535 17.7651 18.4013 17.871 18.2778C17.9765 18.1542 18.0117 18.0661 18.0822 17.925C18.1528 17.7838 18.1175 17.6603 18.0647 17.5545C18.0117 17.4487 17.6006 16.4025 17.4125 15.9842Z" fill="white"/>
</g>
<defs>
<linearGradient id="paint0_linear_917_53158" x1="832.011" y1="1660.22" x2="832.011" y2="11.3553" gradientUnits="userSpaceOnUse">
<stop stop-color="#1FAF38"/>
<stop offset="1" stop-color="#60D669"/>
</linearGradient>
<linearGradient id="paint1_linear_917_53158" x1="861.183" y1="1719.05" x2="861.183" y2="11.0591" gradientUnits="userSpaceOnUse">
<stop stop-color="#F9F9F9"/>
<stop offset="1" stop-color="white"/>
</linearGradient>
<clipPath id="clip0_917_53158">
<rect width="17.0052" height="17.1366" fill="white" transform="translate(10.9941 11.0591)"/>
</clipPath>
</defs>
</svg>
