<svg width="60" height="60" viewBox="0 0 60 60" fill="none" xmlns="http://www.w3.org/2000/svg">
<path d="M17.5023 42.5002V42.5252M17.5023 17.5002V17.5252M42.5023 17.5002V17.5252M42.5023 35.0002H35.0023V42.5002M50.0023 35.0002V35.0252M35.0023 50.0002H42.5023M42.5023 42.5002H50.0023V50.0002M10.0023 12.5002C10.0023 11.8372 10.2657 11.2013 10.7346 10.7325C11.2034 10.2636 11.8393 10.0002 12.5023 10.0002H22.5023C23.1654 10.0002 23.8012 10.2636 24.2701 10.7325C24.7389 11.2013 25.0023 11.8372 25.0023 12.5002V22.5002C25.0023 23.1633 24.7389 23.7992 24.2701 24.268C23.8012 24.7369 23.1654 25.0002 22.5023 25.0002H12.5023C11.8393 25.0002 11.2034 24.7369 10.7346 24.268C10.2657 23.7992 10.0023 23.1633 10.0023 22.5002V12.5002ZM35.0023 12.5002C35.0023 11.8372 35.2657 11.2013 35.7346 10.7325C36.2034 10.2636 36.8393 10.0002 37.5023 10.0002H47.5023C48.1654 10.0002 48.8012 10.2636 49.2701 10.7325C49.7389 11.2013 50.0023 11.8372 50.0023 12.5002V22.5002C50.0023 23.1633 49.7389 23.7992 49.2701 24.268C48.8012 24.7369 48.1654 25.0002 47.5023 25.0002H37.5023C36.8393 25.0002 36.2034 24.7369 35.7346 24.268C35.2657 23.7992 35.0023 23.1633 35.0023 22.5002V12.5002ZM10.0023 37.5002C10.0023 36.8372 10.2657 36.2013 10.7346 35.7325C11.2034 35.2636 11.8393 35.0002 12.5023 35.0002H22.5023C23.1654 35.0002 23.8012 35.2636 24.2701 35.7325C24.7389 36.2013 25.0023 36.8372 25.0023 37.5002V47.5002C25.0023 48.1633 24.7389 48.7992 24.2701 49.268C23.8012 49.7369 23.1654 50.0002 22.5023 50.0002H12.5023C11.8393 50.0002 11.2034 49.7369 10.7346 49.268C10.2657 48.7992 10.0023 48.1633 10.0023 47.5002V37.5002Z" stroke="#879EF5" stroke-width="2.64706" stroke-linecap="round" stroke-linejoin="round"/>
<path d="M14.5589 40.147C14.5589 39.9033 14.7564 39.7058 15 39.7058H19.853C20.0966 39.7058 20.2941 39.9033 20.2941 40.147V44.9999C20.2941 45.2436 20.0966 45.4411 19.853 45.4411H15C14.7564 45.4411 14.5589 45.2436 14.5589 44.9999V40.147Z" fill="#879EF5" stroke="#879EF5" stroke-width="0.882353"/>
<path d="M14.5589 15C14.5589 14.7564 14.7564 14.5589 15 14.5589H19.853C20.0966 14.5589 20.2941 14.7564 20.2941 15V19.9408C20.2941 20.1844 20.0966 20.3819 19.853 20.3819H15C14.7564 20.3819 14.5589 20.1844 14.5589 19.9408V15Z" fill="#879EF5" stroke="#879EF5" stroke-width="0.882353"/>
<path d="M39.7059 15C39.7059 14.7564 39.9034 14.5589 40.1471 14.5589H45C45.2437 14.5589 45.4412 14.7564 45.4412 15V19.853C45.4412 20.0966 45.2437 20.2941 45 20.2941H40.1471C39.9034 20.2941 39.7059 20.0966 39.7059 19.853V15Z" fill="#879EF5" stroke="#879EF5" stroke-width="0.882353"/>
<g clip-path="url(#clip0_764_25283)">
<path d="M14.6393 29.9311C14.6385 32.6405 15.3465 35.286 16.6926 37.6178L14.5106 45.5848L22.6639 43.447C24.9189 44.6747 27.4456 45.318 30.0132 45.3181H30.02C38.4961 45.3181 45.3959 38.4208 45.3995 29.9432C45.4011 25.8352 43.8028 21.9722 40.8988 19.066C37.9953 16.16 34.1337 14.5588 30.0193 14.5569C21.5422 14.5569 14.6429 21.4538 14.6394 29.9311" fill="url(#paint0_linear_764_25283)"/>
<path d="M14.1351 29.9256C14.1342 32.7325 14.8675 35.4727 16.2616 37.8879L14.0013 46.1406L22.447 43.9262C24.774 45.1949 27.3941 45.8639 30.0601 45.8649H30.067C38.8472 45.8649 45.9948 38.7195 45.9986 29.9384C46.0001 25.6827 44.3442 21.681 41.3365 18.6706C38.3284 15.6606 34.3287 14.0017 30.067 14C21.2852 14 14.1386 21.1444 14.1351 29.9256ZM19.1646 37.472L18.8493 36.9714C17.5237 34.8636 16.824 32.4278 16.825 29.9266C16.8278 22.6279 22.7678 16.6898 30.072 16.6898C33.6092 16.6913 36.9334 18.0701 39.4337 20.5719C41.9338 23.074 43.3096 26.3999 43.3087 29.9374C43.3055 37.2361 37.3653 43.175 30.067 43.175H30.0617C27.6853 43.1737 25.3546 42.5355 23.322 41.3295L22.8383 41.0427L17.8265 42.3567L19.1646 37.4719V37.472Z" fill="url(#paint1_linear_764_25283)"/>
<path d="M26.0768 23.2681C25.7786 22.6053 25.4647 22.5919 25.1811 22.5803C24.9489 22.5703 24.6834 22.5711 24.4182 22.5711C24.1527 22.5711 23.7214 22.6709 23.3568 23.069C22.9918 23.4675 21.9634 24.4304 21.9634 26.3889C21.9634 28.3474 23.3899 30.2401 23.5887 30.506C23.7878 30.7714 26.3426 34.919 30.3888 36.5146C33.7515 37.8406 34.4358 37.5769 35.1656 37.5104C35.8956 37.4442 37.5209 36.5477 37.8525 35.6182C38.1844 34.6888 38.1844 33.8921 38.0849 33.7256C37.9854 33.5597 37.7199 33.4601 37.3218 33.2611C36.9236 33.062 34.9665 32.099 34.6017 31.9661C34.2367 31.8334 33.9713 31.7671 33.7059 32.1657C33.4404 32.5637 32.6781 33.4601 32.4457 33.7256C32.2136 33.9917 31.9813 34.0248 31.5833 33.8257C31.185 33.626 29.9029 33.2061 28.382 31.8501C27.1986 30.795 26.3996 29.492 26.1674 29.0934C25.9352 28.6954 26.1425 28.4797 26.3421 28.2813C26.521 28.103 26.7403 27.8165 26.9396 27.5841C27.1381 27.3516 27.2043 27.1858 27.337 26.9203C27.4699 26.6546 27.4034 26.4221 27.304 26.223C27.2043 26.0239 26.4307 24.0552 26.0768 23.2681Z" fill="white"/>
</g>
<defs>
<linearGradient id="paint0_linear_764_25283" x1="1558.96" y1="3117.35" x2="1558.96" y2="14.5569" gradientUnits="userSpaceOnUse">
<stop stop-color="#1FAF38"/>
<stop offset="1" stop-color="#60D669"/>
</linearGradient>
<linearGradient id="paint1_linear_764_25283" x1="1613.86" y1="3228.06" x2="1613.86" y2="14" gradientUnits="userSpaceOnUse">
<stop stop-color="#F9F9F9"/>
<stop offset="1" stop-color="white"/>
</linearGradient>
<clipPath id="clip0_764_25283">
<rect width="32" height="32.2472" fill="white" transform="translate(14 14)"/>
</clipPath>
</defs>
</svg>
