<svg width="142" height="42" viewBox="0 0 142 42" fill="none" xmlns="http://www.w3.org/2000/svg">
<g clip-path="url(#clip0_112_258)">
<path d="M134.056 0H7.94406C3.55667 0 0 3.55667 0 7.94406V31.7762C0 36.1636 3.55667 39.7203 7.94406 39.7203H134.056C138.443 39.7203 142 36.1636 142 31.7762V7.94406C142 3.55667 138.443 0 134.056 0Z" fill="black"/>
<path d="M136.948 42.0741H4.97421C2.23203 42.0741 0 39.8357 0 37.0957V4.97105C0 2.22993 2.23203 0 4.97421 0H136.948C139.689 0 142 2.22993 142 4.97105V37.0957C142 39.8357 139.689 42.0741 136.948 42.0741Z" fill="#363A45"/>
<path d="M140.982 37.0961C140.982 39.3218 139.179 41.1247 136.949 41.1247H4.9741C2.74522 41.1247 0.936035 39.3218 0.936035 37.0961V4.9694C0.936035 2.74473 2.74522 0.935547 4.9741 0.935547H136.948C139.179 0.935547 140.981 2.74473 140.981 4.9694L140.982 37.0961Z" fill="#363A45"/>
<path fill-rule="evenodd" clip-rule="evenodd" d="M22.8391 29.8253H15.8881V18.9022H8.93701V11.9512H22.8391V29.8253ZM44.1888 11.9512L36.7412 29.8253H28.7971L36.2447 11.9512H44.1888ZM28.7971 19.8952C30.9908 19.8952 32.7692 18.1169 32.7692 15.9232C32.7692 13.7295 30.9908 11.9512 28.7971 11.9512C26.6035 11.9512 24.8251 13.7295 24.8251 15.9232C24.8251 18.1169 26.6035 19.8952 28.7971 19.8952Z" fill="white"/>
<mask id="mask0_112_258" style="mask-type:luminance" maskUnits="userSpaceOnUse" x="46" y="5" width="90" height="32">
<path d="M135.049 5H46.6709V36.7762H135.049V5Z" fill="white"/>
</mask>
<g mask="url(#mask0_112_258)">
<path d="M54.1025 30.7664H56.0047V23.3137H58.4932V21.5156H51.6399V23.3137H54.1025V30.7664Z" fill="white"/>
<path d="M58.4956 30.7656H60.2806V27.6517C60.2806 26.5702 60.8409 25.9188 61.6877 25.9188C61.9874 25.9188 62.222 25.9709 62.4955 26.062V24.251C62.2741 24.1859 62.0917 24.1729 61.8962 24.1729C61.1666 24.1729 60.5021 24.6549 60.2806 25.2934V24.251H58.4956V30.7656Z" fill="white"/>
<path d="M65.9218 30.9086C66.8207 30.9086 67.4983 30.4526 67.798 30.0357V30.7653H69.583V24.2507H67.798V24.9804C67.4983 24.5634 66.8207 24.1074 65.9218 24.1074C64.1889 24.1074 62.8599 25.6709 62.8599 27.508C62.8599 29.3451 64.1889 30.9086 65.9218 30.9086ZM66.2996 29.28C65.3094 29.28 64.658 28.5373 64.658 27.508C64.658 26.4787 65.3094 25.7361 66.2996 25.7361C67.2898 25.7361 67.9412 26.4787 67.9412 27.508C67.9412 28.5373 67.2898 29.28 66.2996 29.28Z" fill="white"/>
<path d="M73.8332 30.9083C74.7322 30.9083 75.4097 30.4523 75.7094 30.0354V30.765H77.4943V20.9932H75.7094V24.9801C75.4097 24.5631 74.7322 24.1071 73.8332 24.1071C72.1003 24.1071 70.7712 25.6706 70.7712 27.5077C70.7712 29.3448 72.1003 30.9083 73.8332 30.9083ZM74.211 29.2797C73.2208 29.2797 72.5693 28.537 72.5693 27.5077C72.5693 26.4784 73.2208 25.7358 74.211 25.7358C75.2012 25.7358 75.8527 26.4784 75.8527 27.5077C75.8527 28.537 75.2012 29.2797 74.211 29.2797Z" fill="white"/>
<path d="M79.9853 23.1832C80.6237 23.1832 81.1318 22.675 81.1318 22.0496C81.1318 21.4241 80.6237 20.916 79.9853 20.916C79.3729 20.916 78.8518 21.4241 78.8518 22.0496C78.8518 22.675 79.3729 23.1832 79.9853 23.1832ZM79.0994 30.7661H80.8843V24.2515H79.0994V30.7661Z" fill="white"/>
<path d="M82.4682 30.7653H84.2531V27.5861C84.2531 26.3353 84.8655 25.7361 85.6993 25.7361C86.442 25.7361 86.846 26.3093 86.846 27.2474V30.7653H88.631V26.9477C88.631 25.2539 87.6929 24.1074 86.1163 24.1074C85.2695 24.1074 84.605 24.4722 84.2531 24.9934V24.2507H82.4682V30.7653Z" fill="white"/>
<path d="M93.1733 29.0715C92.2743 29.0715 91.5186 28.3939 91.5186 27.4038C91.5186 26.4005 92.2743 25.7361 93.1733 25.7361C94.0723 25.7361 94.828 26.4005 94.828 27.4038C94.828 28.3939 94.0723 29.0715 93.1733 29.0715ZM92.9648 33.6186C94.9583 33.6186 96.4697 32.6024 96.4697 30.2571V24.2507H94.6847V24.9804C94.3329 24.4722 93.6294 24.1074 92.7954 24.1074C91.0887 24.1074 89.7206 25.5666 89.7206 27.4038C89.7206 29.2279 91.0887 30.6871 92.7954 30.6871C93.6294 30.6871 94.3329 30.3092 94.6847 29.8271V30.2702C94.6847 31.3125 93.9942 32.0552 92.9388 32.0552C92.2092 32.0552 91.4795 31.8076 90.9062 31.2473L89.929 32.5764C90.6717 33.2929 91.8313 33.6186 92.9648 33.6186Z" fill="white"/>
<path d="M100.244 30.7664H101.925L105.755 21.5156H103.671L101.091 27.939L98.4719 21.5156H96.4263L100.244 30.7664Z" fill="white"/>
<path d="M107.393 23.1832C108.032 23.1832 108.539 22.675 108.539 22.0496C108.539 21.4241 108.032 20.916 107.393 20.916C106.781 20.916 106.259 21.4241 106.259 22.0496C106.259 22.675 106.781 23.1832 107.393 23.1832ZM106.507 30.7661H108.292V24.2515H106.507V30.7661Z" fill="white"/>
<path d="M112.911 30.9086C114.28 30.9086 115.322 30.3354 115.934 29.4493L114.606 28.4592C114.306 28.9152 113.746 29.28 112.924 29.28C112.064 29.28 111.296 28.7979 111.192 27.9249H116.064C116.104 27.6514 116.091 27.4689 116.091 27.3125C116.091 25.1888 114.593 24.1074 112.886 24.1074C110.905 24.1074 109.459 25.5797 109.459 27.508C109.459 29.5666 110.97 30.9086 112.911 30.9086ZM111.257 26.7132C111.426 25.9185 112.169 25.5797 112.833 25.5797C113.497 25.5797 114.15 25.9315 114.306 26.7132H111.257Z" fill="white"/>
<path d="M122.778 30.7656H124.551L126.699 24.251H124.785L123.56 28.4203L122.231 24.251H120.863L119.547 28.4203L118.31 24.251H116.407L118.57 30.7656H120.341L121.554 27.0653L122.778 30.7656Z" fill="white"/>
<path d="M53.547 16.9158H54.5406V11.8373H56.2986V10.8861H51.7975V11.8373H53.547V16.9158ZM56.8539 16.9158H57.8475V14.2661H58.2976L60.5057 16.9158H61.7287L59.4865 14.2067C60.3528 14.0029 60.8539 13.4509 60.8539 12.6016C60.8539 11.6079 60.149 10.8861 59.028 10.8861H56.8539V16.9158ZM57.8475 13.3999V11.8033H58.909C59.4951 11.8033 59.8602 12.0836 59.8602 12.6016C59.8602 13.1197 59.4951 13.3999 58.909 13.3999H57.8475ZM61.283 16.9158H62.3106L62.9901 15.3362H65.6907L66.3786 16.9158H67.4147L64.7819 10.8861H63.9157L61.283 16.9158ZM63.3722 14.453L64.3404 12.2194L65.3085 14.453H63.3722ZM67.8517 16.9158H69.7032C71.4951 16.9158 72.8624 15.608 72.8624 13.901C72.8624 12.194 71.4951 10.8861 69.7032 10.8861H67.8517V16.9158ZM68.8454 15.9902V11.8118H69.7032C70.994 11.8118 71.8518 12.7205 71.8518 13.901C71.8518 15.0815 70.994 15.9902 69.7032 15.9902H68.8454ZM73.6161 16.9158H77.2425V15.9646H74.6097V14.3341H76.7329V13.3829H74.6097V11.8373H77.2425V10.8861H73.6161V16.9158ZM85.5557 13.901C85.5557 12.1599 84.1629 10.7842 82.4389 10.7842C80.7064 10.7842 79.3221 12.1599 79.3221 13.901C79.3221 15.6419 80.7064 17.0177 82.4389 17.0177C84.1629 17.0177 85.5557 15.6419 85.5557 13.901ZM80.3243 13.901C80.3243 12.7035 81.2414 11.7439 82.4389 11.7439C83.6278 11.7439 84.5451 12.7035 84.5451 13.901C84.5451 15.0984 83.6278 16.0581 82.4389 16.0581C81.2414 16.0581 80.3243 15.0984 80.3243 13.901ZM91.5632 16.9158V10.8861H90.5611V15.2089L87.1726 10.8861H86.3063V16.9158H87.3V12.5761L90.6969 16.9158H91.5632Z" fill="white"/>
</g>
</g>
<defs>
<clipPath id="clip0_112_258">
<rect width="142" height="42" fill="white"/>
</clipPath>
</defs>
</svg>
